<mxfile host="app.diagrams.net" agent="Mozilla/5.0 (Windows NT 10.0; Win64; x64) AppleWebKit/537.36 (KHTML, like Gecko) Chrome/136.0.0.0 Safari/537.36" version="26.2.14">
  <diagram name="第 1 页" id="5gCNtKrUgKxVjI0ovn3M">
    <mxGraphModel dx="1042" dy="623" grid="1" gridSize="10" guides="1" tooltips="1" connect="1" arrows="1" fold="1" page="1" pageScale="1" pageWidth="827" pageHeight="1169" math="0" shadow="0">
      <root>
        <mxCell id="0" />
        <mxCell id="1" parent="0" />
        <mxCell id="4C_u59s0PWGTWfB15SAx-3" style="edgeStyle=orthogonalEdgeStyle;rounded=0;orthogonalLoop=1;jettySize=auto;html=1;entryX=0;entryY=0.5;entryDx=0;entryDy=0;" edge="1" parent="1" source="4C_u59s0PWGTWfB15SAx-1" target="4C_u59s0PWGTWfB15SAx-2">
          <mxGeometry relative="1" as="geometry" />
        </mxCell>
        <mxCell id="4C_u59s0PWGTWfB15SAx-1" value="ads_prd_sal_dlr_cab_trc_df" style="rounded=0;whiteSpace=wrap;html=1;" vertex="1" parent="1">
          <mxGeometry x="60" y="170" width="180" height="60" as="geometry" />
        </mxCell>
        <mxCell id="4C_u59s0PWGTWfB15SAx-5" style="edgeStyle=orthogonalEdgeStyle;rounded=0;orthogonalLoop=1;jettySize=auto;html=1;" edge="1" parent="1" source="4C_u59s0PWGTWfB15SAx-2" target="4C_u59s0PWGTWfB15SAx-4">
          <mxGeometry relative="1" as="geometry" />
        </mxCell>
        <mxCell id="4C_u59s0PWGTWfB15SAx-11" style="edgeStyle=orthogonalEdgeStyle;rounded=0;orthogonalLoop=1;jettySize=auto;html=1;entryX=0;entryY=0.5;entryDx=0;entryDy=0;curved=1;" edge="1" parent="1" source="4C_u59s0PWGTWfB15SAx-2" target="4C_u59s0PWGTWfB15SAx-12">
          <mxGeometry relative="1" as="geometry">
            <mxPoint x="530" y="360" as="targetPoint" />
          </mxGeometry>
        </mxCell>
        <mxCell id="4C_u59s0PWGTWfB15SAx-2" value="&lt;div style=&quot;background-color: rgb(255, 255, 254); font-family: Consolas, &amp;quot;Courier New&amp;quot;, monospace; font-size: 14px; line-height: 19px; white-space: pre;&quot;&gt;dws_prd_sal_dlr_cab_trc_df&lt;br/&gt;&lt;div style=&quot;line-height: 19px;&quot;&gt;&lt;span style=&quot;color: #93a1a1;&quot;&gt;共采机柜跟踪汇总表&lt;/span&gt;&lt;/div&gt;&lt;/div&gt;" style="rounded=0;whiteSpace=wrap;html=1;" vertex="1" parent="1">
          <mxGeometry x="310" y="170" width="220" height="60" as="geometry" />
        </mxCell>
        <mxCell id="4C_u59s0PWGTWfB15SAx-7" value="" style="edgeStyle=orthogonalEdgeStyle;rounded=0;orthogonalLoop=1;jettySize=auto;html=1;curved=1;" edge="1" parent="1" source="4C_u59s0PWGTWfB15SAx-4" target="4C_u59s0PWGTWfB15SAx-6">
          <mxGeometry relative="1" as="geometry" />
        </mxCell>
        <mxCell id="4C_u59s0PWGTWfB15SAx-10" value="" style="edgeStyle=orthogonalEdgeStyle;rounded=0;orthogonalLoop=1;jettySize=auto;html=1;curved=1;entryX=0;entryY=0.5;entryDx=0;entryDy=0;" edge="1" parent="1" source="4C_u59s0PWGTWfB15SAx-4" target="4C_u59s0PWGTWfB15SAx-9">
          <mxGeometry relative="1" as="geometry" />
        </mxCell>
        <mxCell id="4C_u59s0PWGTWfB15SAx-4" value="&lt;div style=&quot;background-color: rgb(255, 255, 254); font-family: Consolas, &amp;quot;Courier New&amp;quot;, monospace; font-size: 14px; line-height: 19px; white-space: pre;&quot;&gt;dwd_prd_sal_dlr_cab_put_dtl_df&lt;br/&gt;&lt;div style=&quot;line-height: 19px;&quot;&gt;&lt;span style=&quot;color: #93a1a1;&quot;&gt;经销商自购机柜投放报表&lt;/span&gt;&lt;/div&gt;&lt;/div&gt;" style="rounded=0;whiteSpace=wrap;html=1;" vertex="1" parent="1">
          <mxGeometry x="610" y="170" width="240" height="60" as="geometry" />
        </mxCell>
        <mxCell id="4C_u59s0PWGTWfB15SAx-6" value="&lt;div style=&quot;background-color: rgb(255, 255, 254); font-family: Consolas, &amp;quot;Courier New&amp;quot;, monospace; font-size: 14px; line-height: 19px; white-space: pre;&quot;&gt;ods_Vstore_bdm_cab_fee_refund_mode_df&lt;/div&gt;" style="whiteSpace=wrap;html=1;rounded=0;" vertex="1" parent="1">
          <mxGeometry x="1010" y="130" width="300" height="60" as="geometry" />
        </mxCell>
        <mxCell id="4C_u59s0PWGTWfB15SAx-9" value="&lt;div style=&quot;background-color: rgb(255, 255, 254); font-family: Consolas, &amp;quot;Courier New&amp;quot;, monospace; font-size: 14px; line-height: 19px; white-space: pre;&quot;&gt;std_tpm_rpt_rittalv3estimatedcostreport_daily_df&lt;br/&gt;&lt;div style=&quot;line-height: 19px;&quot;&gt;&lt;span style=&quot;color: #93a1a1;&quot;&gt;机柜砍级数据&lt;/span&gt;&lt;/div&gt;&lt;/div&gt;" style="whiteSpace=wrap;html=1;rounded=0;" vertex="1" parent="1">
          <mxGeometry x="1010" y="240" width="430" height="60" as="geometry" />
        </mxCell>
        <mxCell id="4C_u59s0PWGTWfB15SAx-14" value="" style="edgeStyle=orthogonalEdgeStyle;rounded=0;orthogonalLoop=1;jettySize=auto;html=1;" edge="1" parent="1" source="4C_u59s0PWGTWfB15SAx-12" target="4C_u59s0PWGTWfB15SAx-13">
          <mxGeometry relative="1" as="geometry" />
        </mxCell>
        <mxCell id="4C_u59s0PWGTWfB15SAx-12" value="&lt;div style=&quot;background-color: rgb(255, 255, 254); font-family: Consolas, &amp;quot;Courier New&amp;quot;, monospace; font-size: 14px; line-height: 19px; white-space: pre;&quot;&gt;dwd_prd_sal_dlr_cab_expn_cyc_dtl_df&lt;br/&gt;&lt;div style=&quot;line-height: 19px;&quot;&gt;&lt;span style=&quot;color: #93a1a1;&quot;&gt;经销商自购机柜费用周期报表&lt;/span&gt;&lt;/div&gt;&lt;/div&gt;" style="rounded=0;whiteSpace=wrap;html=1;" vertex="1" parent="1">
          <mxGeometry x="610" y="360" width="280" height="60" as="geometry" />
        </mxCell>
        <mxCell id="4C_u59s0PWGTWfB15SAx-13" value="&lt;div style=&quot;background-color: rgb(255, 255, 254); font-family: Consolas, &amp;quot;Courier New&amp;quot;, monospace; font-size: 14px; line-height: 19px; white-space: pre;&quot;&gt;std_tpm_rpt_rittalv3costcyclereport_daily_df&lt;br/&gt;&lt;div style=&quot;line-height: 19px;&quot;&gt;&lt;span style=&quot;color: #93a1a1;&quot;&gt;经销商自购机柜预估费用报表&lt;/span&gt;&lt;/div&gt;&lt;/div&gt;" style="whiteSpace=wrap;html=1;rounded=0;" vertex="1" parent="1">
          <mxGeometry x="1050" y="360" width="360" height="60" as="geometry" />
        </mxCell>
      </root>
    </mxGraphModel>
  </diagram>
</mxfile>
